<svg xmlns="http://www.w3.org/2000/svg" width="270.769" height="270.769" viewBox="0 0 270.769 270.769">
  <path id="Path_10" data-name="Path 10" d="M10.426-429.231A9.232,9.232,0,0,1,3-432.906,13.9,13.9,0,0,1,0-442V-546.822H21.169v91.675H24.96v-96.7H10.426A9.232,9.232,0,0,1,3-555.525a13.9,13.9,0,0,1-3-9.09V-687.235a13.9,13.9,0,0,1,3-9.09A9.232,9.232,0,0,1,10.426-700H35.7a9.232,9.232,0,0,1,7.425,3.675,13.9,13.9,0,0,1,3,9.09v104.826H24.96v-91.675H21.169v96.316H35.7a9.077,9.077,0,0,1,7.425,3.868,14.691,14.691,0,0,1,3,9.284V-442a13.9,13.9,0,0,1-3,9.09,9.232,9.232,0,0,1-7.425,3.675Zm49.92,0a9.232,9.232,0,0,1-7.425-3.675,13.9,13.9,0,0,1-3-9.09V-687.235a13.9,13.9,0,0,1,3-9.09A9.232,9.232,0,0,1,60.346-700H85.622a9.232,9.232,0,0,1,7.425,3.675,13.9,13.9,0,0,1,3,9.09V-442a13.9,13.9,0,0,1-3,9.09,9.232,9.232,0,0,1-7.425,3.675Zm10.742-25.916H74.88V-674.083H71.089Zm74.88,25.916H99.84V-700h21.169v244.852H124.8V-562.295h21.169ZM149.76-700h21.169v270.769H149.76Zm60.662,0a9.076,9.076,0,0,1,7.425,3.868,14.69,14.69,0,0,1,3,9.283v244.465a14.69,14.69,0,0,1-3,9.283,9.077,9.077,0,0,1-7.425,3.868h-35.7V-700ZM199.68-455.147V-674.083h-3.791v218.936Zm35.386,25.916a9.232,9.232,0,0,1-7.425-3.675,13.9,13.9,0,0,1-3-9.09V-546.822h21.169v91.675H249.6v-96.7H235.066a9.232,9.232,0,0,1-7.425-3.675,13.9,13.9,0,0,1-3-9.09V-687.235a13.9,13.9,0,0,1,3-9.09A9.232,9.232,0,0,1,235.066-700h25.276a9.232,9.232,0,0,1,7.425,3.675,13.9,13.9,0,0,1,3,9.09v104.826H249.6v-91.675h-3.791v96.316h14.534a9.077,9.077,0,0,1,7.425,3.868,14.691,14.691,0,0,1,3,9.284V-442a13.9,13.9,0,0,1-3,9.09,9.232,9.232,0,0,1-7.425,3.675Z" transform="translate(0 700)"/>
</svg>
