<svg xmlns="http://www.w3.org/2000/svg" width="270.769" height="270.769" viewBox="0 0 270.769 270.769">
  <path id="Path_27" data-name="Path 27" d="M10.426,270.769A9.232,9.232,0,0,1,3,267.094,13.9,13.9,0,0,1,0,258V153.177H21.169v91.675H24.96v-96.7H10.426A9.232,9.232,0,0,1,3,144.474a13.9,13.9,0,0,1-3-9.09V12.765a13.9,13.9,0,0,1,3-9.09A9.232,9.232,0,0,1,10.426,0H35.7a9.232,9.232,0,0,1,7.425,3.675,13.9,13.9,0,0,1,3,9.09V117.591H24.96V25.916H21.169v96.316H35.7a9.077,9.077,0,0,1,7.425,3.868,14.691,14.691,0,0,1,3,9.284V258a13.9,13.9,0,0,1-3,9.09,9.232,9.232,0,0,1-7.425,3.675Zm49.92,0a9.232,9.232,0,0,1-7.425-3.675,13.9,13.9,0,0,1-3-9.09V12.765a13.9,13.9,0,0,1,3-9.09A9.232,9.232,0,0,1,60.346,0H85.622a9.232,9.232,0,0,1,7.425,3.675,13.9,13.9,0,0,1,3,9.09V258a13.9,13.9,0,0,1-3,9.09,9.232,9.232,0,0,1-7.425,3.675Zm10.742-25.916H74.88V25.916H71.089Zm74.88,25.916H99.84V0h21.169V244.852H124.8V137.705h21.169ZM149.76,0h21.169V270.769H149.76Zm60.662,0a9.077,9.077,0,0,1,7.425,3.868,14.69,14.69,0,0,1,3,9.283V257.617a14.69,14.69,0,0,1-3,9.283,9.077,9.077,0,0,1-7.425,3.868h-35.7V0ZM199.68,244.852V25.916h-3.791V244.852Zm35.386,25.916a9.232,9.232,0,0,1-7.425-3.675,13.9,13.9,0,0,1-3-9.09V153.177h21.169v91.675H249.6v-96.7H235.066a9.232,9.232,0,0,1-7.425-3.675,13.9,13.9,0,0,1-3-9.09V12.765a13.9,13.9,0,0,1,3-9.09A9.232,9.232,0,0,1,235.066,0h25.276a9.232,9.232,0,0,1,7.425,3.675,13.9,13.9,0,0,1,3,9.09V117.591H249.6V25.916h-3.791v96.316h14.534a9.077,9.077,0,0,1,7.425,3.868,14.691,14.691,0,0,1,3,9.284V258a13.9,13.9,0,0,1-3,9.09,9.232,9.232,0,0,1-7.425,3.675Z" transform="translate(270.769) rotate(90)"/>
</svg>
