<svg width="18" height="23" viewBox="0 0 18 23" fill="none" xmlns="http://www.w3.org/2000/svg">
<path fill-rule="evenodd" clip-rule="evenodd" d="M13.3859 2H7.92554C6.82097 2 5.92554 2.89543 5.92554 4C5.92554 4.19403 6.08283 4.35132 6.27685 4.35132H9.46036C11.6695 4.35132 13.4604 6.14218 13.4604 8.35132V13.58C13.4604 15.2556 15.3859 16.3242 15.3859 14.6486V4C15.3859 2.89543 14.4905 2 13.3859 2ZM13.4604 19C13.4604 18.8045 13.6174 18.6468 13.8118 18.6262C15.8207 18.4136 17.3859 16.7139 17.3859 14.6486V4C17.3859 1.79086 15.595 0 13.3859 0H7.92554C5.7164 0 3.92554 1.79087 3.92554 4C3.92554 4.19544 3.76845 4.35315 3.57411 4.37372C1.56521 4.58634 0 6.28605 0 8.35132V19C0 21.2091 1.79086 23 4 23H9.46036C11.6695 23 13.4604 21.2091 13.4604 19ZM4 6.35132H9.46036C10.5649 6.35132 11.4604 7.24675 11.4604 8.35132V19C11.4604 20.1045 10.5649 21 9.46036 21H4C2.89543 21 2 20.1045 2 19V8.35132C2 7.24675 2.89543 6.35132 4 6.35132Z" fill="black"/>
</svg>
