<svg xmlns="http://www.w3.org/2000/svg" width="33.916" height="33.917" viewBox="0 0 33.916 33.917">
  <path id="Union_1_-_Outline" data-name="Union 1 - Outline" d="M-9847.371-2458.385h-2.905v-7.267h1.332A10.186,10.186,0,0,1-9859-2475.826,10.185,10.185,0,0,1-9848.824-2486a10.186,10.186,0,0,1,10.175,10.174,10.186,10.186,0,0,1-10.054,10.174h1.332Zm-1.453-24.708a7.278,7.278,0,0,0-7.27,7.267,7.278,7.278,0,0,0,7.27,7.267,7.276,7.276,0,0,0,7.269-7.267A7.276,7.276,0,0,0-9848.824-2483.093Z" transform="translate(8729.232 -5199.108) rotate(-45)"/>
</svg>
